<svg xmlns="http://www.w3.org/2000/svg" height="24" viewBox="0 -960 960 960" width="24"><path d="M477.283-240q21.956 0 37.293-15.337t15.337-37.327q0-21.99-15.337-37.174-15.337-15.184-37.293-15.184-21.957 0-37.294 15.184-15.337 15.184-15.337 37.174 0 21.99 15.337 37.327T477.283-240Zm-38.631-154h78.783q0-32.043 7.619-51.283 7.62-19.239 41.424-51.282 25.283-25.044 40.163-48.916 14.881-23.871 14.881-57.394 0-56.886-40.522-87.245-40.522-30.358-96.522-30.358-57.956 0-94.652 31.195-36.696 31.196-51.174 74.631l71.261 27.674q5.478-18.478 22.381-39.239 16.902-20.761 50.989-20.761 29.13 0 43.934 16.304 14.805 16.304 14.805 35.87 0 18.804-11.642 35.945-11.641 17.142-27.967 30.707-43.043 38.522-53.402 59.358-10.359 20.837-10.359 74.794ZM480-71.87q-84.913 0-159.345-32.117-74.432-32.118-129.491-87.177-55.059-55.059-87.177-129.491Q71.869-395.087 71.869-480t32.118-159.345q32.118-74.432 87.177-129.491 55.059-55.059 129.491-87.177Q395.087-888.131 480-888.131t159.345 32.118q74.432 32.118 129.491 87.177 55.059 55.059 87.177 129.491Q888.131-564.913 888.131-480t-32.118 159.345q-32.118 74.432-87.177 129.491-55.059 55.059-129.491 87.177Q564.913-71.869 480-71.869Zm0-91q133.043 0 225.087-92.043Q797.13-346.957 797.13-480t-92.043-225.087Q613.043-797.13 480-797.13t-225.087 92.043Q162.87-613.043 162.87-480t92.043 225.087Q346.957-162.87 480-162.87ZM480-480Z"/></svg>